<?xml version="1.0" encoding="utf-8"?>
<!-- Generator: Adobe Illustrator 19.2.1, SVG Export Plug-In . SVG Version: 6.00 Build 0)  -->
<svg version="1.1" xmlns="http://www.w3.org/2000/svg" xmlns:xlink="http://www.w3.org/1999/xlink" x="0px" y="0px"
	 viewBox="0 0 159.4 69" style="enable-background:new 0 0 159.4 69;" xml:space="preserve">
<style type="text/css">
	.st0{display:none;}
	.st1{display:inline;}
	.st2{fill:#172983;}
	.st3{fill:#13235B;}
	.st4{fill:#FFFFFF;}
	.st5{fill:#4B4B4D;}
	.st6{fill:#87888A;}
	.st7{fill:#1D3E8F;}
	.st8{fill:none;}
	.st9{fill:none;stroke:#000000;stroke-miterlimit:10;}
	.st10{fill:#FFFFFF;stroke:#000000;stroke-miterlimit:10;}
</style>
<g id="Слой_1" class="st0">
	<g class="st1">
		<g>
			<path class="st2" d="M62.4,21.9h0.6l3.3,4.8l3.3-4.8H70V30h-0.6v-7l-3.2,4.7h0L62.9,23v7h-0.6V21.9z"/>
			<path class="st2" d="M75.5,21.9h0.6l3.8,8.2h-0.7l-1-2.3h-4.8l-1,2.3h-0.6L75.5,21.9z M77.9,27.2l-2.1-4.7l-2.1,4.7H77.9z"/>
			<path class="st2" d="M80.8,26c0-2.3,1.7-4.2,4.1-4.2c1.4,0,2.3,0.6,3.1,1.3l-0.4,0.4c-0.7-0.7-1.5-1.2-2.7-1.2
				c-1.9,0-3.4,1.6-3.4,3.6c0,2.1,1.5,3.6,3.4,3.6c1.2,0,2-0.5,2.8-1.3l0.4,0.4c-0.9,0.8-1.8,1.4-3.2,1.4
				C82.5,30.2,80.8,28.3,80.8,26z"/>
			<path class="st2" d="M91.9,22.5h-2.8v-0.6h6.3v0.6h-2.8V30h-0.6V22.5z"/>
			<path class="st2" d="M97.2,21.9h5.8v0.6h-5.2v3.2h4.6v0.6h-4.6v3.3h5.2V30h-5.8V21.9z"/>
			<path class="st2" d="M104.9,21.9h2.9c1.8,0,3,0.9,3,2.5c0,1.7-1.5,2.6-3.2,2.6h-2.2v3h-0.6V21.9z M107.8,26.5
				c1.5,0,2.5-0.8,2.5-2c0-1.3-1-2-2.5-2h-2.3v4H107.8z"/>
			<path class="st2" d="M112.3,26c0-2.3,1.7-4.2,4.1-4.2c1.4,0,2.3,0.6,3.1,1.3l-0.4,0.4c-0.7-0.7-1.5-1.2-2.7-1.2
				c-1.9,0-3.4,1.6-3.4,3.6c0,2.1,1.5,3.6,3.4,3.6c1.2,0,2-0.5,2.8-1.3l0.4,0.4c-0.9,0.8-1.8,1.4-3.2,1.4
				C114,30.2,112.3,28.3,112.3,26z"/>
			<path class="st2" d="M121.2,21.9h0.6v5.3l5.2-5.3h0.8l-3.5,3.6L128,30h-0.8l-3.3-4.1l-2,2V30h-0.6V21.9z"/>
			<path class="st2" d="M132.6,21.9h0.6L137,30h-0.7l-1-2.3h-4.8l-1,2.3h-0.6L132.6,21.9z M135,27.2l-2.1-4.7l-2.1,4.7H135z"/>
			<path class="st2" d="M140.6,26.7c-1.4-0.2-2.3-1-2.3-2.4c0-1.3,1.1-2.4,2.9-2.4h3.4V30H144v-3.2h-2.7l-2.5,3.2H138L140.6,26.7z
				 M144,26.2v-3.8h-2.8c-1.5,0-2.3,0.7-2.3,1.9c0,1.2,1,1.9,2.4,1.9H144z"/>
			<path class="st2" d="M62.1,33.8h1.8v3.5l3.3-3.5h2.2l-3.3,3.4l3.5,4.7h-2.1l-2.5-3.5l-0.9,1v2.5h-1.8V33.8z"/>
			<path class="st2" d="M73.4,33.7H75l3.5,8.2h-1.9l-0.7-1.8h-3.4l-0.7,1.8h-1.8L73.4,33.7z M75.2,38.5l-1.1-2.6l-1.1,2.6H75.2z"/>
			<path class="st2" d="M79.7,33.8h3.3c1.9,0,3.1,1.1,3.1,2.8c0,1.9-1.5,2.8-3.3,2.8h-1.4v2.4h-1.8V33.8z M82.9,37.9
				c0.9,0,1.4-0.5,1.4-1.3c0-0.8-0.6-1.2-1.4-1.2h-1.4v2.5H82.9z"/>
			<path class="st2" d="M87.5,33.8h1.8v2.8H91c1.9,0,3,1,3,2.6c0,1.7-1.2,2.7-3.1,2.7h-3.4V33.8z M89.3,38.1v2.2h1.6
				c0.9,0,1.3-0.4,1.3-1.1c0-0.7-0.5-1.1-1.3-1.1H89.3z"/>
			<path class="st2" d="M95.3,33.8h6.1v1.6h-4.3V37h3.8v1.6h-3.8v1.7h4.4v1.6h-6.2V33.8z"/>
			<path class="st2" d="M103.1,33.8h3.3c1.9,0,3.1,1.1,3.1,2.8c0,1.9-1.5,2.8-3.3,2.8h-1.4v2.4h-1.8V33.8z M106.3,37.9
				c0.9,0,1.4-0.5,1.4-1.3c0-0.8-0.6-1.2-1.4-1.2h-1.4v2.5H106.3z"/>
			<path class="st2" d="M110.8,33.8h1.8V37h3.3v-3.2h1.8v8.1h-1.8v-3.3h-3.3v3.3h-1.8V33.8z"/>
			<path class="st2" d="M119.3,37.8c0-2.3,1.8-4.2,4.3-4.2c2.5,0,4.3,1.9,4.3,4.2c0,2.3-1.8,4.2-4.3,4.2
				C121.1,42,119.3,40.2,119.3,37.8z M126,37.8c0-1.4-1-2.5-2.5-2.5c-1.4,0-2.4,1.1-2.4,2.5c0,1.4,1,2.6,2.5,2.6
				C125.1,40.4,126,39.2,126,37.8z"/>
			<path class="st2" d="M131.3,41.9h-1.8v-8.1h5.7v1.6h-3.9V41.9z"/>
			<path class="st2" d="M135.7,37.8c0-2.3,1.8-4.2,4.3-4.2c2.5,0,4.3,1.9,4.3,4.2c0,2.3-1.8,4.2-4.3,4.2
				C137.5,42,135.7,40.2,135.7,37.8z M142.5,37.8c0-1.4-1-2.5-2.5-2.5c-1.4,0-2.4,1.1-2.4,2.5c0,1.4,1,2.6,2.5,2.6
				S142.5,39.2,142.5,37.8z"/>
			<path class="st2" d="M62.1,45.6h1.9l2.1,3.4l2.1-3.4h1.9v8.1h-1.8v-5.3l-2.3,3.5h0l-2.3-3.4v5.3h-1.7V45.6z"/>
			<path class="st2" d="M72.2,45.6h6.1v1.6H74v1.6h3.8v1.6H74v1.7h4.4v1.6h-6.2V45.6z"/>
			<path class="st2" d="M80,45.6h1.8v3.2H85v-3.2h1.8v8.1H85v-3.3h-3.3v3.3H80V45.6z"/>
			<path class="st2" d="M88.8,45.6h6.1v1.6h-4.3v1.6h3.8v1.6h-3.8v1.7h4.4v1.6h-6.2V45.6z"/>
			<path class="st2" d="M95.7,52.1h0.8c0.6-1.4,0.9-2.8,0.9-5.5v-0.9h5.9v6.5h1l-0.2,3.3h-1.5v-1.7h-5.1l-0.1,1.7h-1.6V52.1z
				 M99,47.2V48c0,1.7-0.3,2.9-0.7,4.1h3.1v-4.9H99z"/>
			<path class="st2" d="M110.1,53.7v-2.2l-1.1-1.2l-2.3,3.3h-2.1l3.2-4.6l-3.1-3.5h2.1l3.3,3.8v-3.8h1.8v3.8l3.3-3.8h2.1l-3.1,3.5
				l3.2,4.6h-2.1l-2.3-3.3l-1.1,1.2v2.2H110.1z"/>
			<path class="st2" d="M118.4,45.6h1.9l2.1,3.4l2.1-3.4h1.9v8.1h-1.8v-5.3l-2.3,3.5h0l-2.3-3.4v5.3h-1.8V45.6z"/>
			<path class="st2" d="M128.5,45.6h6.1v1.6h-4.3v1.6h3.8v1.6h-3.8v1.7h4.4v1.6h-6.2V45.6z"/>
			<path class="st2" d="M136.3,45.6h1.8v3.2h3.3v-3.2h1.8v8.1h-1.8v-3.3H138v3.3h-1.8V45.6z"/>
			<path class="st2" d="M146.9,47.3h-2.5v-1.6h6.7v1.6h-2.5v6.5h-1.8V47.3z"/>
			<path class="st2" d="M154.3,45.6h1.6l3.5,8.2h-1.9l-0.7-1.8h-3.4l-0.7,1.8h-1.8L154.3,45.6z M156.2,50.3l-1.1-2.6l-1.1,2.6H156.2
				z"/>
		</g>
		<g>
			<polygon class="st3" points="30.9,0 0,69 61.9,69 			"/>
			<polygon class="st4" points="30.9,2.1 1.3,68.2 60.6,68.2 			"/>
			<polyline class="st3" points="24.7,32.2 20.3,25.7 24.7,34 30.9,28.1 37.2,34 41.5,25.7 37.2,32.2 30.9,26.3 			"/>
			<polyline class="st3" points="20.3,25.7 24.7,32.2 31.3,26 23.5,18.7 			"/>
			<polyline class="st3" points="41.5,25.7 37.2,32.2 30.6,26 38.4,18.7 			"/>
			<polyline class="st4" points="41.2,25.1 37,31.4 31.4,26.1 38.6,19.3 			"/>
			<polyline class="st5" points="22.5,45.8 15.8,35.8 22.5,48.2 30.9,40.3 39.4,48.2 46,35.8 39.4,45.8 30.9,37.8 			"/>
			<polyline class="st6" points="15.8,35.8 22.5,45.8 30.9,37.8 19.7,27.2 			"/>
			<polyline class="st6" points="46,35.8 39.4,45.8 30.9,37.8 42.2,27.2 			"/>
			<polyline class="st3" points="19.5,64.9 9.5,50 19.5,68.2 30.9,57.4 42.4,68.2 52.4,50 42.3,64.9 30.9,54.1 			"/>
			<polyline class="st7" points="9.5,50 19.5,64.9 30.9,54.1 14.6,38.6 			"/>
			<polyline class="st7" points="52.4,50 42.3,64.9 30.9,54.1 47.3,38.6 			"/>
			<path class="st8" d="M42.4,64.9"/>
			<path class="st8" d="M42.3,64.9"/>
			<path class="st8" d="M24.7,32.2"/>
			<path class="st9" d="M19.4,68.3"/>
			<path class="st8" d="M19.5,68.2"/>
			<path class="st8" d="M19.5,68.2"/>
			<path class="st4" d="M20.5,25.3"/>
			<polyline class="st4" points="20.6,25.1 24.9,31.4 30.5,26.1 23.3,19.3 			"/>
		</g>
	</g>
</g>
<g id="Слой_2">
	<g>
		<path class="st4" d="M38.4,18.7l-7.4,7l-7.4-7l-3.2,7l4.4,8.3l6.2-5.9l6.2,5.9l4.3-8.3L38.4,18.7z M24.9,31.4l-4.3-6.3l2.6-5.9
			l7.2,6.9L24.9,31.4z M37,31.4l-5.6-5.3l7.2-6.9l2.6,5.9L37,31.4z"/>
		<g>
			<path class="st4" d="M62.4,21.9h0.6l3.3,4.8l3.3-4.8H70V30h-0.6v-7l-3.2,4.7h0L62.9,23v7h-0.6V21.9z"/>
			<path class="st4" d="M75.5,21.9h0.6l3.8,8.2h-0.7l-1-2.3h-4.8l-1,2.3h-0.6L75.5,21.9z M77.9,27.2l-2.1-4.7l-2.1,4.7H77.9z"/>
			<path class="st4" d="M80.8,26c0-2.3,1.7-4.2,4.1-4.2c1.4,0,2.3,0.6,3.1,1.3l-0.4,0.4c-0.7-0.7-1.5-1.2-2.7-1.2
				c-1.9,0-3.4,1.6-3.4,3.6c0,2.1,1.5,3.6,3.4,3.6c1.2,0,2-0.5,2.8-1.3l0.4,0.4c-0.9,0.8-1.8,1.4-3.2,1.4
				C82.5,30.2,80.8,28.3,80.8,26z"/>
			<path class="st4" d="M91.9,22.5h-2.8v-0.6h6.3v0.6h-2.8V30h-0.6V22.5z"/>
			<path class="st4" d="M97.2,21.9h5.8v0.6h-5.2v3.2h4.6v0.6h-4.6v3.3h5.2V30h-5.8V21.9z"/>
			<path class="st4" d="M104.9,21.9h2.9c1.8,0,3,0.9,3,2.5c0,1.7-1.5,2.6-3.2,2.6h-2.2v3h-0.6V21.9z M107.8,26.5
				c1.5,0,2.5-0.8,2.5-2c0-1.3-1-2-2.5-2h-2.3v4H107.8z"/>
			<path class="st4" d="M112.3,26c0-2.3,1.7-4.2,4.1-4.2c1.4,0,2.3,0.6,3.1,1.3l-0.4,0.4c-0.7-0.7-1.5-1.2-2.7-1.2
				c-1.9,0-3.4,1.6-3.4,3.6c0,2.1,1.5,3.6,3.4,3.6c1.2,0,2-0.5,2.8-1.3l0.4,0.4c-0.9,0.8-1.8,1.4-3.2,1.4
				C114,30.2,112.3,28.3,112.3,26z"/>
			<path class="st4" d="M121.2,21.9h0.6v5.3l5.2-5.3h0.8l-3.5,3.6L128,30h-0.8l-3.3-4.1l-2,2V30h-0.6V21.9z"/>
			<path class="st4" d="M132.6,21.9h0.6L137,30h-0.7l-1-2.3h-4.8l-1,2.3h-0.6L132.6,21.9z M135,27.2l-2.1-4.7l-2.1,4.7H135z"/>
			<path class="st4" d="M140.6,26.7c-1.4-0.2-2.3-1-2.3-2.4c0-1.3,1.1-2.4,2.9-2.4h3.4V30H144v-3.2h-2.7l-2.5,3.2H138L140.6,26.7z
				 M144,26.2v-3.8h-2.8c-1.5,0-2.3,0.7-2.3,1.9c0,1.2,1,1.9,2.4,1.9H144z"/>
			<path class="st4" d="M62.1,33.8h1.8v3.5l3.3-3.5h2.2l-3.3,3.4l3.5,4.7h-2.1l-2.5-3.5l-0.9,1v2.5h-1.8V33.8z"/>
			<path class="st4" d="M73.4,33.7H75l3.5,8.2h-1.9l-0.7-1.8h-3.4l-0.7,1.8h-1.8L73.4,33.7z M75.2,38.5l-1.1-2.6l-1.1,2.6H75.2z"/>
			<path class="st4" d="M79.7,33.8h3.3c1.9,0,3.1,1.1,3.1,2.8c0,1.9-1.5,2.8-3.3,2.8h-1.4v2.4h-1.8V33.8z M82.9,37.9
				c0.9,0,1.4-0.5,1.4-1.3c0-0.8-0.6-1.2-1.4-1.2h-1.4v2.5H82.9z"/>
			<path class="st4" d="M87.5,33.8h1.8v2.8H91c1.9,0,3,1,3,2.6c0,1.7-1.2,2.7-3.1,2.7h-3.4V33.8z M89.3,38.1v2.2h1.6
				c0.9,0,1.3-0.4,1.3-1.1c0-0.7-0.5-1.1-1.3-1.1H89.3z"/>
			<path class="st4" d="M95.3,33.8h6.1v1.6h-4.3V37h3.8v1.6h-3.8v1.7h4.4v1.6h-6.2V33.8z"/>
			<path class="st4" d="M103.1,33.8h3.3c1.9,0,3.1,1.1,3.1,2.8c0,1.9-1.5,2.8-3.3,2.8h-1.4v2.4h-1.8V33.8z M106.3,37.9
				c0.9,0,1.4-0.5,1.4-1.3c0-0.8-0.6-1.2-1.4-1.2h-1.4v2.5H106.3z"/>
			<path class="st4" d="M110.8,33.8h1.8V37h3.3v-3.2h1.8v8.1h-1.8v-3.3h-3.3v3.3h-1.8V33.8z"/>
			<path class="st4" d="M119.3,37.8c0-2.3,1.8-4.2,4.3-4.2c2.5,0,4.3,1.9,4.3,4.2c0,2.3-1.8,4.2-4.3,4.2
				C121.1,42,119.3,40.2,119.3,37.8z M126,37.8c0-1.4-1-2.5-2.5-2.5c-1.4,0-2.4,1.1-2.4,2.5c0,1.4,1,2.6,2.5,2.6
				C125.1,40.4,126,39.2,126,37.8z"/>
			<path class="st4" d="M131.3,41.9h-1.8v-8.1h5.7v1.6h-3.9V41.9z"/>
			<path class="st4" d="M135.7,37.8c0-2.3,1.8-4.2,4.3-4.2c2.5,0,4.3,1.9,4.3,4.2c0,2.3-1.8,4.2-4.3,4.2
				C137.5,42,135.7,40.2,135.7,37.8z M142.5,37.8c0-1.4-1-2.5-2.5-2.5c-1.4,0-2.4,1.1-2.4,2.5c0,1.4,1,2.6,2.5,2.6
				S142.5,39.2,142.5,37.8z"/>
			<path class="st4" d="M62.1,45.6h1.9l2.1,3.4l2.1-3.4h1.9v8.1h-1.8v-5.3l-2.3,3.5h0l-2.3-3.4v5.3h-1.7V45.6z"/>
			<path class="st4" d="M72.2,45.6h6.1v1.6H74v1.6h3.8v1.6H74v1.7h4.4v1.6h-6.2V45.6z"/>
			<path class="st4" d="M80,45.6h1.8v3.2H85v-3.2h1.8v8.1H85v-3.3h-3.3v3.3H80V45.6z"/>
			<path class="st4" d="M88.8,45.6h6.1v1.6h-4.3v1.6h3.8v1.6h-3.8v1.7h4.4v1.6h-6.2V45.6z"/>
			<path class="st4" d="M95.7,52.1h0.8c0.6-1.4,0.9-2.8,0.9-5.5v-0.9h5.9v6.5h1l-0.2,3.3h-1.5v-1.7h-5.1l-0.1,1.7h-1.6V52.1z
				 M99,47.2V48c0,1.7-0.3,2.9-0.7,4.1h3.1v-4.9H99z"/>
			<path class="st4" d="M110.1,53.7v-2.2l-1.1-1.2l-2.3,3.3h-2.1l3.2-4.6l-3.1-3.5h2.1l3.3,3.8v-3.8h1.8v3.8l3.3-3.8h2.1l-3.1,3.5
				l3.2,4.6h-2.1l-2.3-3.3l-1.1,1.2v2.2H110.1z"/>
			<path class="st4" d="M118.4,45.6h1.9l2.1,3.4l2.1-3.4h1.9v8.1h-1.8v-5.3l-2.3,3.5h0l-2.3-3.4v5.3h-1.8V45.6z"/>
			<path class="st4" d="M128.5,45.6h6.1v1.6h-4.3v1.6h3.8v1.6h-3.8v1.7h4.4v1.6h-6.2V45.6z"/>
			<path class="st4" d="M136.3,45.6h1.8v3.2h3.3v-3.2h1.8v8.1h-1.8v-3.3H138v3.3h-1.8V45.6z"/>
			<path class="st4" d="M146.9,47.3h-2.5v-1.6h6.7v1.6h-2.5v6.5h-1.8V47.3z"/>
			<path class="st4" d="M154.3,45.6h1.6l3.5,8.2h-1.9l-0.7-1.8h-3.4l-0.7,1.8h-1.8L154.3,45.6z M156.2,50.3l-1.1-2.6l-1.1,2.6H156.2
				z"/>
		</g>
		<path class="st4" d="M30.9,0L0,69c0,0,61.9,0,61.9,0L30.9,0z M30.9,2.1l29.6,66.1H1.3L30.9,2.1z"/>
		<polyline class="st4" points="22.5,45.8 15.8,35.8 22.5,48.2 30.9,40.3 39.4,48.2 46,35.8 39.4,45.8 30.9,37.8 		"/>
		<polyline class="st4" points="15.8,35.8 22.5,45.8 30.9,37.8 19.7,27.2 		"/>
		<polyline class="st4" points="46,35.8 39.4,45.8 30.9,37.8 42.2,27.2 		"/>
		<polyline class="st4" points="19.5,64.9 9.5,50 19.5,68.2 30.9,57.4 42.4,68.2 52.4,50 42.3,64.9 30.9,54.1 		"/>
		<polyline class="st4" points="9.5,50 19.5,64.9 30.9,54.1 14.6,38.6 		"/>
		<polyline class="st4" points="52.4,50 42.3,64.9 30.9,54.1 47.3,38.6 		"/>
		<path class="st4" d="M42.4,64.9"/>
		<path class="st4" d="M42.3,64.9"/>
		<path class="st4" d="M24.7,32.2"/>
		<path class="st10" d="M19.4,68.3"/>
		<path class="st4" d="M19.5,68.2"/>
		<path class="st4" d="M19.5,68.2"/>
		<path class="st4" d="M20.5,25.3"/>
	</g>
</g>
</svg>
